<svg id="Capa_1" enable-background="new 0 0 512 512" height="512" viewBox="0 0 512 512" width="512" xmlns="http://www.w3.org/2000/svg"><g><g><g><path d="m512 256c0 59.95-23.32 116.31-65.66 158.73-2.73 2.81-6.55 4.56-10.77 4.56-8.28 0-15-6.71-15-14.99v-.01c0-3.98 1.58-7.8 4.39-10.61 36.78-36.77 57.04-85.67 57.04-137.68 0-52.02-20.26-100.91-57.04-137.68-5.85-5.86-5.86-15.36 0-21.22s15.36-5.86 21.21 0c42.45 42.44 65.83 98.87 65.83 158.9z" fill="#dfe7f4"/></g><g><path d="m452 256c0 43.99-17.13 85.36-48.24 116.48-5.86 5.86-15.382 5.848-21.21 0-5.86-5.86-5.87-15.35-.01-21.21 25.45-25.46 39.46-59.29 39.46-95.27s-14.01-69.81-39.46-95.26c-5.86-5.86-5.85-15.36.01-21.22 5.85-5.85 15.35-5.85 21.21.01 31.11 31.12 48.24 72.48 48.24 116.47z" fill="#dfe7f4"/></g><g><path d="m392 256c0 27.98-10.89 54.28-30.68 74.05-5.82 5.84-15.343 5.867-21.21 0-5.86-5.86-5.85-15.36.01-21.22 14.11-14.1 21.88-32.86 21.88-52.83 0-19.96-7.77-38.72-21.88-52.83-5.86-5.85-5.87-15.35-.01-21.21s15.35-5.86 21.21-.01c19.79 19.77 30.68 46.07 30.68 74.05z" fill="#dfe7f4"/></g></g><g><path d="m90.464 152.06v207.88h-72.012c-10.192 0-18.452-8.26-18.452-18.453v-170.974c0-10.192 8.26-18.452 18.452-18.452h72.012z" fill="#334973"/><path d="m300.931 61.014v389.971c0 11.159-11.969 18.224-21.746 12.842l-188.721-103.887v-207.88l188.721-103.887c9.777-5.382 21.746 1.683 21.746 12.841z" fill="#7ed8f6"/><path d="m90.464 256v103.94h-72.012c-10.192 0-18.452-8.26-18.452-18.453v-85.487z" fill="#1f3259"/><path d="m300.931 256v194.986c0 11.159-11.969 18.224-21.746 12.842l-188.721-103.888v-103.94z" fill="#6aa9ff"/></g><g fill="#c7cfe1"><path d="m392 256c0 27.98-10.89 54.28-30.68 74.05-5.82 5.84-15.343 5.867-21.21 0-5.86-5.86-5.85-15.36.01-21.22 14.11-14.1 21.88-32.86 21.88-52.83z"/>
  <path d="m452 256c0 43.99-17.13 85.36-48.24 116.48-5.86 5.86-15.382 5.848-21.21 0-5.86-5.86-5.87-15.35-.01-21.21 25.45-25.46 39.46-59.29 39.46-95.27z"/>
  <path d="m512 256c0 59.95-23.32 116.31-65.66 158.73-2.73 2.81-6.55 4.56-10.77 4.56-8.28 0-15-6.71-15-14.99v-.01c0-3.98 1.58-7.8 4.39-10.61 36.78-36.77 57.04-85.67 57.04-137.68z"/></g></g></svg>
