<svg height="390pt" viewBox="-9 0 390 390.288" width="390pt" xmlns="http://www.w3.org/2000/svg" xmlns:xlink="http://www.w3.org/1999/xlink"><linearGradient id="lg1"><stop offset=".322" stop-color="#a163f5"/><stop offset=".466" stop-color="#b074ee"/><stop offset=".752" stop-color="#d8a1dd"/><stop offset=".898" stop-color="#efbad3"/></linearGradient><linearGradient id="linear0" gradientUnits="userSpaceOnUse" x1="326.248" x2="326.248" xlink:href="#lg1" y1="435.146827" y2="-43.793173"/><linearGradient id="linear1" gradientUnits="userSpaceOnUse" x1="122.772" x2="122.772" xlink:href="#lg1" y1="435.146827" y2="-43.793173"/><path d="m286.351562 109.355469c-3.3125 0-6 2.6875-6 6s2.6875 6 6 6c40.753907 0 73.792969 33.039062 73.792969 73.792969 0 40.753906-33.039062 73.789062-73.792969 73.789062-3.3125 0-6 2.6875-6 6 0 3.316406 2.6875 6 6 6 47.382813 0 85.792969-38.410156 85.792969-85.789062 0-47.382813-38.410156-85.792969-85.792969-85.792969zm0 0" fill="url(#linear0)"/><path d="m240.011719 1.132812c-3.3125-1.730468-7.3125-1.460937-10.363281.691407l-144.65625 101.691406h-38.847657c-25.394531.027344-45.972656 20.605469-46 46v91.261719c.027344 25.394531 20.605469 45.972656 46 46h38.847657l144.65625 101.691406c3.054687 2.148438 7.050781 2.414062 10.363281.695312 3.3125-1.722656 5.390625-5.144531 5.390625-8.875v-370.285156c.007812-3.734375-2.074219-7.15625-5.390625-8.871094zm-6.609375 375.304688-140.457032-98.738281c-1.085937-1.8125-3.039062-2.921875-5.152343-2.921875h-41.648438c-18.769531-.019532-33.980469-15.230469-34-34v-91.261719c.019531-18.769531 15.230469-33.980469 34-34h41.644531c2.113282 0 4.070313-1.109375 5.152344-2.921875l140.460938-98.738281zm0 0" fill="url(#linear1)"/></svg>